<?xml version="1.0" encoding="utf-8"?>
<svg version="1.1" id="Layer_1" xmlns="http://www.w3.org/2000/svg" x="0px" y="0px" width="100%" viewBox="462.599 -13.606 2605.478 2481" xmlns:bx="https://boxy-svg.com">
  <defs>
    <bx:export>
      <bx:file format="svg"/>
    </bx:export>
  </defs>
  <ellipse style="stroke: rgb(0, 0, 0); stroke-width: 1; fill: rgb(253, 255, 246);" cx="1785.18" cy="1232.58" rx="1201.01" ry="1201.01"/>
  <path opacity="0.000000" stroke="none" d="M 2309.75 2451.68 C 1582.27 2451.68 855.691 2451.68 129.111 2451.68 C 129.111 1702.46 129.111 953.245 129.111 204.03 C 1188.04 204.03 2246.97 204.03 3305.89 204.03 C 3305.89 953.245 3305.89 1702.46 3305.89 2451.68 C 2974.15 2451.68 2642.41 2451.68 2309.75 2451.68 M 1109.12 2025.41 C 1112.67 2007.09 1116.29 1988.78 1119.76 1970.43 C 1125.28 1941.29 1135.34 1914.14 1153.97 1890.59 C 1165.99 1875.38 1179.42 1861.64 1194.13 1848.99 C 1233.99 1814.71 1279.89 1796.82 1332.6 1798.19 C 1352.43 1798.71 1372.32 1800.48 1391.97 1803.24 C 1447.59 1811.07 1498.74 1830.18 1543.27 1865.34 C 1578.55 1893.17 1614.45 1920.26 1649.24 1948.68 C 1689.66 1981.7 1729.31 2015.65 1769.01 2049.53 C 1792.42 2069.49 1815.42 2089.95 1838.35 2110.47 C 1850.49 2121.32 1862.93 2132.03 1873.74 2144.14 C 1896.94 2170.16 1926.71 2183.28 1959.71 2190.55 C 1971.6 2193.18 1980.94 2189.59 1988.49 2178.88 C 2007.83 2151.45 2024.99 2122.72 2041.35 2093.51 C 2062.28 2056.14 2083.19 2018.72 2102.8 1980.65 C 2124.07 1939.37 2144 1897.38 2164.18 1855.55 C 2172.69 1837.9 2179.57 1819.44 2188.52 1802.05 C 2210.28 1759.77 2240.34 1723.57 2273.95 1690.34 C 2302.31 1662.31 2333.2 1637.19 2365.43 1613.67 C 2377.71 1604.7 2391.01 1599.35 2405.76 1596.52 C 2433.75 1591.15 2461.65 1593.57 2489.45 1597.44 C 2515.44 1601.07 2541 1606.99 2565.97 1615.13 C 2582.84 1620.64 2600.29 1625.33 2613.76 1637.88 C 2622.36 1645.88 2630.85 1654.11 2638.62 1662.91 C 2661.82 1689.18 2682.02 1717.79 2702.36 1746.27 C 2725.31 1778.42 2748.15 1810.67 2771.45 1842.6 C 2777.64 1851.08 2784.77 1859.05 2792.4 1866.27 C 2807.37 1880.41 2826 1878.82 2839.01 1862.89 C 2841.87 1859.4 2844.4 1855.63 2846.86 1851.84 C 2850.47 1846.28 2853.46 1840.26 2857.5 1835.03 C 2861.99 1829.2 2863.18 1823.09 2861.16 1816.34 C 2858.05 1805.95 2855.65 1795.19 2851.11 1785.44 C 2835.94 1752.92 2819.98 1720.78 2804.28 1688.52 C 2794.25 1667.9 2783.2 1647.74 2774.22 1626.68 C 2744.66 1557.31 2718.68 1486.56 2695.89 1414.65 C 2684.69 1379.32 2673.94 1343.84 2667.64 1307.21 C 2665.61 1295.38 2663.83 1283.55 2665.74 1271.32 C 2668.68 1252.57 2675.58 1235.28 2683.74 1218.43 C 2701.58 1181.63 2724.24 1147.81 2748.81 1115.24 C 2798.6 1049.27 2848.84 983.635 2898.38 917.475 C 2955.33 841.405 3012.17 765.255 3068.22 688.525 C 3105.4 637.619 3141.2 585.707 3177.38 534.075 C 3183.94 524.712 3189.63 514.693 3195.15 504.662 C 3201.24 493.605 3200.02 482.626 3193.15 472.156 C 3187.56 463.645 3180.03 457.215 3171.4 452.056 C 3152.5 440.768 3132.23 433.893 3110.16 431.729 C 3098.68 430.603 3089.56 433.199 3081.87 441.837 C 3069.03 456.254 3055.38 469.984 3043.04 484.801 C 3007.7 527.21 2972.49 569.737 2937.88 612.74 C 2886.62 676.424 2835.97 740.595 2784.98 804.495 C 2735.88 866.035 2688.74 929.175 2636.1 987.815 C 2605.59 1021.8 2572.65 1053.2 2534.91 1079.23 C 2500.85 1102.72 2464.27 1120.72 2423.91 1130.67 C 2392.1 1138.53 2359.58 1141.35 2327.1 1141.67 C 2259.22 1142.36 2191.33 1141.47 2123.45 1140.88 C 2082.12 1140.52 2040.79 1139.63 1999.47 1138.68 C 1964.84 1137.88 1930.88 1142.01 1897.62 1151.61 C 1877.35 1157.45 1857.18 1163.63 1836.97 1169.68 C 1807.91 1178.38 1778.49 1184.03 1747.9 1181.96 C 1733.77 1181.02 1719.57 1180.76 1705.42 1180.84 C 1684.3 1180.95 1663.2 1181.99 1642.09 1181.98 C 1622.48 1181.97 1603.6 1185.44 1585.65 1192.94 C 1568.7 1200.03 1551.98 1207.78 1535.57 1216.05 C 1497.25 1235.36 1458.24 1252.83 1416.78 1264.38 C 1409.82 1266.32 1402.88 1268.47 1396.18 1271.17 C 1354.52 1287.96 1312.83 1304.7 1271.34 1321.9 C 1229 1339.46 1186.62 1356.77 1142.4 1369.29 C 1092.93 1383.29 1043.29 1385.36 993.151 1373.8 C 956.511 1365.36 921.421 1352.46 888.431 1334.53 C 846.841 1311.9 805.531 1288.72 764.551 1265.01 C 686.241 1219.65 608.081 1174.04 530.171 1127.99 C 474.861 1095.32 419.931 1061.96 365.091 1028.49 C 338.711 1012.4 311.761 997.775 281.821 989.495 C 259.931 983.455 237.831 979.485 214.891 982.555 C 198.691 984.725 185.971 997.205 185.461 1013.87 C 185.231 1021.25 186.201 1028.99 188.301 1036.08 C 195.861 1061.56 211.791 1082.03 228.961 1101.67 C 247.291 1122.64 270.151 1137.83 293.281 1152.67 C 393.301 1216.89 493.321 1281.12 593.391 1345.27 C 690.401 1407.46 787.561 1469.44 884.471 1531.81 C 906.021 1545.66 927.031 1560.39 947.831 1575.37 C 957.621 1582.39 966.251 1591.05 972.161 1601.85 C 975.961 1608.81 977.491 1615.85 972.191 1623.06 C 970.921 1624.77 970.491 1627.51 970.581 1629.74 C 971.861 1661.67 973.301 1693.6 974.691 1725.53 C 975.881 1753.23 977.041 1780.95 978.241 1808.66 C 979.461 1836.97 980.681 1865.3 981.951 1893.61 C 983.121 1919.52 984.301 1945.4 985.551 1971.31 C 987.331 2008.05 989.111 2044.78 991.051 2081.51 C 992.211 2103.47 993.691 2125.43 994.991 2147.39 C 995.671 2158.88 999.891 2168.61 1009.59 2175.18 C 1025 2185.61 1042.09 2189.03 1060.48 2186.64 C 1068.41 2185.61 1074.13 2181.74 1076.59 2174.07 C 1080.91 2160.61 1085.97 2147.26 1088.8 2133.47 C 1096.07 2098.09 1102.3 2062.49 1109.12 2025.41 M 2143.12 1043.59 C 2191.38 1069.31 2242.81 1077.66 2296.51 1069.18 C 2353.94 1060.13 2402.06 1032.9 2441.41 990.135 C 2484.66 943.125 2508.22 887.275 2513.89 824.105 C 2517.3 785.985 2513.56 748.235 2501.72 711.505 C 2484.4 657.755 2454.6 612.438 2409.89 577.785 C 2358.14 537.681 2299.49 519.854 2233.85 526.126 C 2207.78 528.618 2182.82 535.087 2159.01 545.807 C 2102.67 571.181 2060.88 612.145 2032.61 666.695 C 2008.68 712.885 1998.4 762.185 2001.42 814.345 C 2003.17 844.725 2008.92 874.105 2020.01 902.385 C 2044.03 963.615 2084.02 1011.08 2143.12 1043.59 M 1140.07 1290.39 C 1143.65 1289.95 1147.23 1289.38 1150.83 1289.1 C 1170.19 1287.6 1188.93 1283.2 1207.15 1276.69 C 1252.28 1260.56 1289.83 1233.59 1320.1 1196.52 C 1363.01 1143.97 1382.94 1083.13 1383.47 1015.87 C 1383.61 997.905 1381.68 979.635 1378.16 962.005 C 1364.77 894.855 1332.77 838.345 1278.16 796.045 C 1215.36 747.405 1144.67 732.225 1067.48 750.345 C 1017 762.205 975.001 789.125 940.451 827.715 C 898.541 874.525 875.561 929.655 870.281 991.895 C 866.581 1035.35 871.971 1077.92 887.741 1118.94 C 906.021 1166.51 934.441 1206.67 974.781 1237.93 C 1022.86 1275.18 1077.53 1292.56 1140.07 1290.39 Z" style="fill: rgb(47, 202, 222); stroke-width: 1;"/>
  <path opacity="1.000000" stroke="none" d="M 1304.33 1781.69 C 1299.52 1807.6 1295.08 1833.01 1289.9 1858.26 C 1287.87 1868.1 1284.26 1877.63 1281.18 1887.22 C 1279.42 1892.69 1275.34 1895.45 1269.68 1896.2 C 1256.56 1897.9 1244.36 1895.45 1233.37 1888.03 C 1226.44 1883.34 1223.44 1876.38 1222.95 1868.19 C 1222.01 1852.52 1220.96 1836.85 1220.14 1821.17 C 1218.75 1794.96 1217.49 1768.74 1216.21 1742.54 C 1215.32 1724.05 1214.47 1705.57 1213.65 1687.09 C 1212.74 1666.88 1211.86 1646.67 1210.99 1626.46 C 1210.14 1606.69 1209.32 1586.91 1208.46 1567.13 C 1207.47 1544.36 1206.44 1521.58 1205.53 1498.79 C 1205.47 1497.19 1205.78 1495.23 1206.67 1494.02 C 1210.46 1488.87 1209.36 1483.86 1206.65 1478.88 C 1202.43 1471.17 1196.28 1465.01 1189.29 1459.98 C 1174.45 1449.31 1159.46 1438.8 1144.08 1428.89 C 1074.92 1384.4 1005.59 1340.16 936.361 1295.79 C 864.951 1250.02 793.571 1204.17 722.201 1158.35 C 705.691 1147.76 689.381 1136.91 676.301 1121.95 C 664.041 1107.93 652.681 1093.33 647.281 1075.14 C 645.791 1070.09 645.091 1064.57 645.251 1059.3 C 645.621 1047.4 654.691 1038.51 666.261 1036.95 C 682.621 1034.76 698.401 1037.59 714.021 1041.9 C 735.391 1047.81 754.621 1058.26 773.441 1069.73 C 812.581 1093.62 851.771 1117.41 891.241 1140.74 C 946.841 1173.59 1002.61 1206.14 1058.5 1238.51 C 1087.74 1255.43 1117.22 1271.98 1146.9 1288.12 C 1170.45 1300.92 1195.49 1310.12 1221.63 1316.14 C 1257.41 1324.38 1292.84 1322.91 1328.14 1312.92 C 1359.7 1303.99 1389.94 1291.65 1420.16 1279.12 C 1449.77 1266.84 1479.51 1254.89 1509.24 1242.91 C 1514.02 1240.99 1518.97 1239.44 1523.93 1238.07 C 1553.52 1229.82 1581.36 1217.35 1608.71 1203.58 C 1620.42 1197.66 1632.34 1192.13 1644.45 1187.09 C 1657.25 1181.73 1670.73 1179.26 1684.72 1179.27 C 1699.78 1179.28 1714.84 1178.53 1729.91 1178.44 C 1740.02 1178.38 1750.15 1178.58 1760.23 1179.26 C 1782.05 1180.72 1803.05 1176.68 1823.79 1170.48 C 1838.21 1166.17 1852.61 1161.77 1867.07 1157.58 C 1890.8 1150.73 1915.04 1147.8 1939.75 1148.37 C 1969.24 1149.05 1998.73 1149.67 2028.22 1149.93 C 2076.67 1150.37 2125.12 1150.98 2173.54 1150.49 C 2196.73 1150.27 2219.93 1148.26 2242.63 1142.65 C 2271.44 1135.56 2297.54 1122.7 2321.84 1105.94 C 2348.78 1087.37 2372.29 1064.95 2394.06 1040.7 C 2431.63 998.855 2465.26 953.795 2500.3 909.885 C 2536.68 864.285 2572.83 818.495 2609.41 773.045 C 2634.11 742.355 2659.24 712.015 2684.45 681.745 C 2693.26 671.174 2703 661.376 2712.16 651.088 C 2717.65 644.924 2724.16 643.072 2732.35 643.875 C 2748.1 645.419 2762.56 650.325 2776.05 658.381 C 2782.22 662.062 2787.58 666.651 2791.57 672.724 C 2796.48 680.195 2797.35 688.035 2793 695.925 C 2789.06 703.075 2785 710.225 2780.32 716.905 C 2754.5 753.755 2728.95 790.805 2702.41 827.125 C 2662.42 881.885 2621.86 936.225 2581.22 990.505 C 2545.87 1037.71 2510.02 1084.56 2474.49 1131.64 C 2456.96 1154.88 2440.78 1179.02 2428.05 1205.28 C 2422.23 1217.3 2417.3 1229.63 2415.21 1243.02 C 2413.84 1251.74 2415.11 1260.19 2416.57 1268.63 C 2421.06 1294.76 2428.73 1320.09 2436.73 1345.3 C 2452.98 1396.61 2471.53 1447.1 2492.63 1496.61 C 2499.03 1511.63 2506.91 1526.03 2514.07 1540.72 C 2525.28 1563.76 2536.67 1586.69 2547.49 1609.89 C 2550.73 1616.86 2552.44 1624.54 2554.66 1631.94 C 2556.1 1636.77 2555.25 1641.13 2552.05 1645.29 C 2549.17 1649.02 2547.04 1653.31 2544.45 1657.29 C 2542.71 1659.97 2540.89 1662.67 2538.86 1665.16 C 2529.57 1676.54 2516.27 1677.67 2505.6 1667.57 C 2500.15 1662.42 2495.06 1656.73 2490.64 1650.67 C 2474.02 1627.9 2457.73 1604.89 2441.33 1581.94 C 2426.83 1561.62 2412.41 1541.2 2395.86 1522.45 C 2390.31 1516.18 2384.26 1510.32 2378.12 1504.59 C 2368.5 1495.63 2356.05 1492.3 2344.01 1488.37 C 2326.2 1482.55 2307.95 1478.33 2289.41 1475.73 C 2269.56 1472.96 2249.66 1471.24 2229.68 1475.08 C 2219.16 1477.1 2209.67 1480.91 2200.9 1487.33 C 2177.9 1504.11 2155.86 1522.04 2135.62 1542.03 C 2111.63 1565.74 2090.19 1591.58 2074.66 1621.74 C 2068.27 1634.16 2063.36 1647.33 2057.29 1659.92 C 2042.9 1689.79 2028.67 1719.73 2013.49 1749.2 C 1999.49 1776.37 1984.57 1803.07 1969.64 1829.74 C 1957.96 1850.58 1945.72 1871.09 1931.92 1890.65 C 1926.52 1898.31 1919.85 1900.87 1911.38 1898.99 C 1887.82 1893.8 1866.58 1884.42 1850.03 1865.88 C 1842.32 1857.22 1833.44 1849.59 1824.78 1841.84 C 1808.41 1827.19 1792 1812.6 1775.3 1798.36 C 1746.96 1774.18 1718.66 1749.94 1689.83 1726.38 C 1665 1706.1 1639.38 1686.78 1614.2 1666.9 C 1582.43 1641.84 1545.92 1628.18 1506.23 1622.6 C 1492.21 1620.63 1478.01 1619.38 1463.87 1619.01 C 1426.25 1618.02 1393.49 1630.79 1365.05 1655.26 C 1354.55 1664.28 1344.97 1674.08 1336.4 1684.92 C 1323.1 1701.74 1315.92 1721.11 1311.98 1741.9 C 1309.51 1755.01 1306.93 1768.07 1304.33 1781.69 M 1850.44 1768.57 C 1859.59 1779.43 1868.68 1790.36 1877.93 1801.14 C 1881.12 1804.88 1884.39 1808.68 1888.21 1811.76 C 1895.55 1817.68 1903.32 1816.63 1908.93 1809.03 C 1911.71 1805.24 1914.01 1801.02 1915.83 1796.69 C 1918.15 1791.15 1919.68 1785.3 1921.7 1779.62 C 1951.33 1696.32 1981.02 1613.04 2010.63 1529.72 C 2024.75 1489.99 2038.68 1450.19 2052.81 1410.46 C 2060.71 1388.28 2065.85 1365.54 2068.46 1342.12 C 2070.74 1321.7 2071.49 1301.42 2068.19 1281.06 C 2065.92 1267.05 2059.86 1255.81 2046.89 1249.1 C 2040.97 1246.04 2035.1 1242.81 2028.95 1240.26 C 2011.43 1232.97 1993.18 1227.96 1974.73 1223.67 C 1948.45 1217.58 1921.96 1213.88 1894.87 1214.08 C 1850.51 1214.4 1806.13 1214.29 1761.77 1213.88 C 1747 1213.76 1732.6 1215.07 1718.52 1219.52 C 1715.65 1220.41 1712.72 1221.16 1709.83 1222.02 C 1685.52 1229.13 1662.14 1238.31 1641.97 1254.11 C 1618.92 1272.14 1596.17 1290.54 1572.46 1307.74 C 1555.52 1320.04 1545.08 1337.35 1541.65 1358.34 C 1538.5 1377.62 1540.61 1396.47 1546.75 1414.91 C 1549.4 1422.87 1551.81 1430.9 1557.87 1437.22 C 1563.08 1442.66 1568 1448.38 1573.02 1454.01 C 1588.22 1471.03 1603.43 1488.04 1618.58 1505.11 C 1641.02 1530.38 1663.41 1555.7 1685.82 1581.01 C 1703.52 1600.98 1721.27 1620.92 1738.91 1640.96 C 1762.82 1668.11 1786.68 1695.28 1810.5 1722.49 C 1823.67 1737.57 1836.71 1752.74 1850.44 1768.57 Z" style="fill: rgb(47, 202, 222); stroke-width: 1;"/>
  <path opacity="1.000000" stroke="none" d="M 2041.84 1080.28 C 2000.08 1057.31 1971.55 1023.42 1954.41 979.735 C 1946.49 959.565 1942.4 938.595 1941.14 916.915 C 1938.99 879.695 1946.32 844.515 1963.41 811.545 C 1983.57 772.625 2013.39 743.385 2053.6 725.285 C 2070.59 717.635 2088.4 713.015 2107.01 711.235 C 2153.85 706.765 2195.7 719.485 2232.63 748.105 C 2264.54 772.835 2285.8 805.165 2298.16 843.525 C 2306.61 869.735 2309.28 896.675 2306.85 923.875 C 2302.81 968.955 2285.98 1008.8 2255.12 1042.36 C 2227.05 1072.88 2192.71 1092.31 2151.72 1098.78 C 2113.41 1104.83 2076.7 1098.86 2041.84 1080.28 Z" style="fill: rgb(47, 202, 222); stroke-width: 1;"/>
  <path opacity="1.000000" stroke="none" d="M 1325.87 1256.64 C 1281.85 1258.17 1242.83 1245.78 1208.53 1219.18 C 1179.73 1196.88 1159.46 1168.21 1146.41 1134.28 C 1135.16 1105.01 1131.32 1074.63 1133.95 1043.62 C 1137.72 999.195 1154.12 959.865 1184.02 926.455 C 1208.68 898.915 1238.65 879.705 1274.68 871.245 C 1329.76 858.315 1380.21 869.145 1425.02 903.855 C 1463.99 934.045 1486.82 974.365 1496.38 1022.28 C 1498.89 1034.87 1500.27 1047.9 1500.16 1060.72 C 1499.78 1108.71 1485.56 1152.13 1454.95 1189.63 C 1433.34 1216.09 1406.55 1235.34 1374.35 1246.86 C 1361.35 1251.49 1347.97 1254.63 1334.16 1255.7 C 1331.59 1255.89 1329.03 1256.32 1325.87 1256.64 Z" style="fill: rgb(47, 202, 222); stroke-width: 1;"/>
  <path opacity="0.000000" stroke="none" d="M 1850.13 1768.22 C 1836.71 1752.74 1823.67 1737.57 1810.5 1722.49 C 1786.68 1695.28 1762.82 1668.11 1738.91 1640.96 C 1721.27 1620.92 1703.52 1600.98 1685.82 1581.01 C 1663.41 1555.7 1641.02 1530.38 1618.58 1505.11 C 1603.43 1488.04 1588.22 1471.03 1573.02 1454.01 C 1568 1448.38 1563.08 1442.66 1557.87 1437.22 C 1551.81 1430.9 1549.4 1422.87 1546.75 1414.91 C 1540.61 1396.47 1538.5 1377.62 1541.65 1358.34 C 1545.08 1337.35 1555.52 1320.04 1572.46 1307.74 C 1596.17 1290.54 1618.92 1272.14 1641.97 1254.11 C 1662.14 1238.31 1685.52 1229.13 1709.83 1222.02 C 1712.72 1221.16 1715.65 1220.41 1718.52 1219.52 C 1732.6 1215.07 1747 1213.76 1761.77 1213.88 C 1806.13 1214.29 1850.51 1214.4 1894.87 1214.08 C 1921.96 1213.88 1948.45 1217.58 1974.73 1223.67 C 1993.18 1227.96 2011.43 1232.97 2028.95 1240.26 C 2035.1 1242.81 2040.97 1246.04 2046.89 1249.1 C 2059.86 1255.81 2065.92 1267.05 2068.19 1281.06 C 2071.49 1301.42 2070.74 1321.7 2068.46 1342.12 C 2065.85 1365.54 2060.71 1388.28 2052.81 1410.46 C 2038.68 1450.19 2024.75 1489.99 2010.63 1529.72 C 1981.02 1613.04 1951.33 1696.32 1921.7 1779.62 C 1919.68 1785.3 1918.15 1791.15 1915.83 1796.69 C 1914.01 1801.02 1911.71 1805.24 1908.93 1809.03 C 1903.32 1816.63 1895.55 1817.68 1888.21 1811.76 C 1884.39 1808.68 1881.12 1804.88 1877.93 1801.14 C 1868.68 1790.36 1859.59 1779.43 1850.13 1768.22 Z" style="fill: rgb(47, 202, 222); stroke-width: 1;"/>
</svg>